<?xml version="1.0" standalone="no"?><!DOCTYPE svg PUBLIC "-//W3C//DTD SVG 1.1//EN" "http://www.w3.org/Graphics/SVG/1.1/DTD/svg11.dtd"><svg t="1556401332992" class="icon" style="" viewBox="0 0 1024 1024" version="1.1" xmlns="http://www.w3.org/2000/svg" p-id="3601" xmlns:xlink="http://www.w3.org/1999/xlink" width="200" height="200"><defs><style type="text/css"></style></defs><path d="M929.205 789.647l-248.081-169.79c39.209-55.361 62.256-122.969 62.256-195.956 0-187.525-152.085-339.546-339.688-339.546C216.085 84.354 64 236.376 64 423.901c0 187.524 152.085 339.541 339.693 339.541 77.192 0 148.364-25.758 205.41-69.116l210.034 223.251c29.487 31.348 84.523 30.264 118.701-9.462 34.18-39.723 26.895-94.15-8.633-118.468z m-527.354-73.92c-162.246 0-293.784-131.48-293.784-293.662 0-162.188 131.537-293.663 293.784-293.663 162.256 0 293.789 131.475 293.789 293.663 0 162.182-131.532 293.662-293.789 293.662z" p-id="3602" fill="#ffffff"></path><path d="M175.665 434.003H147.14c5.951 129.13 107.944 233.179 236.191 242.388v-28.584c-112.5-9.106-201.777-100.42-207.666-213.804zM413.331 648.276v28.52c38.633-1.714 75.029-12.021 107.324-29.063l-14.199-24.731c-28.101 14.659-59.653 23.604-93.125 25.274z" p-id="3603" fill="#ffffff"></path></svg>