<?xml version="1.0" standalone="no"?><!DOCTYPE svg PUBLIC "-//W3C//DTD SVG 1.1//EN" "http://www.w3.org/Graphics/SVG/1.1/DTD/svg11.dtd"><svg t="1557095256255" class="icon" style="" viewBox="0 0 1163 1024" version="1.1" xmlns="http://www.w3.org/2000/svg" p-id="5337" xmlns:xlink="http://www.w3.org/1999/xlink" width="145.375" height="128"><defs><style type="text/css"></style></defs><path d="M163.739537 163.739511C252.905721 74.573316 397.472657 74.573316 486.638841 163.739511 507.816822 184.917411 538.469985 210.779846 538.469985 210.779846 561.566443 230.830447 599.125656 230.82272 622.109336 210.779846 622.109336 210.779846 652.762638 184.917411 673.94048 163.739511 763.106664 74.573316 907.673738 74.573316 996.839922 163.739511 1086.006106 252.905706 1086.006106 397.472673 996.839922 486.638867 992.385937 491.092849 579.987511 902.193841 579.987511 902.193841 579.987511 902.193841 164.442361 487.341684 163.739537 486.638867 74.573354 397.472673 74.573354 252.905706 163.739537 163.739511L163.739537 163.739511 163.739537 163.739511ZM618.920545 1000.354662C618.920545 1000.354662 1059.029656 561.436653 1065.333622 555.132671 1192.328026 428.138392 1192.328026 222.239986 1065.333622 95.245708 938.339356-31.748569 732.441046-31.748569 605.446781 95.245708 575.369686 125.322782 580.108177 123.245618 580.108177 123.245618 580.108177 123.245618 564.038435 104.151532 555.132679 95.245708 428.138413-31.748569 222.239965-31.748569 95.245699 95.245708-31.748566 222.239986-31.748566 428.138392 95.245699 555.132671 96.239256 556.126187 540.501241 1000.358476 540.501241 1000.358476 562.126461 1021.982258 597.296432 1021.920221 618.920545 1000.354662L618.920545 1000.354662ZM989.405405 311.351351C989.405405 211.999804 908.865038 131.459459 809.513514 131.459459 782.764973 131.459459 761.081081 153.143398 761.081081 179.891892 761.081081 206.640385 782.764973 228.324324 809.513514 228.324324 855.368095 228.324324 892.540541 265.49679 892.540541 311.351351 892.540541 338.099845 914.224432 359.783784 940.972973 359.783784 967.721514 359.783784 989.405405 338.099845 989.405405 311.351351L989.405405 311.351351ZM878.702703 470.486486C905.451243 470.486486 927.135135 448.802548 927.135135 422.054054 927.135135 395.305561 905.451243 373.621622 878.702703 373.621622 851.954162 373.621622 830.27027 395.305561 830.27027 422.054054 830.27027 448.802548 851.954162 470.486486 878.702703 470.486486L878.702703 470.486486Z" p-id="5338" fill="#ffffff"></path></svg>