<?xml version="1.0" encoding="utf-8"?>
<!-- Generator: Adobe Illustrator 21.1.0, SVG Export Plug-In . SVG Version: 6.00 Build 0)  -->
<svg version="1.1" id="Layer_1" xmlns="http://www.w3.org/2000/svg" xmlns:xlink="http://www.w3.org/1999/xlink" 
	 viewBox="75 25 100 100">
<g>
	<path class="st5" d="M93.6,44.7c14.4,2.7,21.8,4.4,23.9,7.3s6.1,4.3,6.1,4.3c3.3,3.2,2.9,6.2,3.7,9.3c0.7,3.1,9.3,1.5,9.3,1.5
		c12.9-3.4,14,10.2,14,10.2c-5.3-4.3-10.6-3.7-10.6-3.7c-4.7,3.8-7.1,2.8-10.8,4.3c-3.7,1.5-8.2,2.3-8.2,2.3
		c-2.9,0.3-2.5,0.9-4.2,1.6s-3.6,0.9-3.6,0.9c-12.2,9.5-17.7,10.4-17.7,10.4c8.9-4.6,11.8-9.1,11.8-9.1c-10.3,3.2-20.4,7.6-20.4,7.6
		c18.6-9.8,21.4-10.1,21.4-10.1c2.9-5.7,7.8-6.9,7.8-6.9c-0.8-2.8,0-4.6,0-4.6c-1.2-0.2-2,0.7-2,0.7c-1.3-8.8-4.2-11.5-4.2-11.5
		C103.9,52.2,93.6,44.7,93.6,44.7z" fill='#F15B5C'/>
	<path class="st1" d="M128.7,67.5c0.2,3.1,5,8.4,5,8.4c0.3,1.9,0.5,2.2,0.5,2.2c-1.4-1.1-2.3-1.5-2.3-1.5c2.5,2,3.7,10.1,3.7,10.1
		c0.5-5.1,0-8.4,0-8.4c5-7.6-2.3-10.2-2.3-10.2C131.3,67.2,128.7,67.5,128.7,67.5z" fill='#FACF5A'/>
</g>
</svg>
