<?xml version="1.0" standalone="no"?><!DOCTYPE svg PUBLIC "-//W3C//DTD SVG 1.1//EN" "http://www.w3.org/Graphics/SVG/1.1/DTD/svg11.dtd"><svg t="1556402303578" class="icon" style="" viewBox="0 0 1060 1024" version="1.1" xmlns="http://www.w3.org/2000/svg" p-id="6360" xmlns:xlink="http://www.w3.org/1999/xlink" width="207.03125" height="200"><defs><style type="text/css"></style></defs><path d="M115.963858 1015.881433C52.222135 1015.881433 0 963.988429 0 900.648977V115.232456C0 51.966144 52.222135 0.03657 115.963858 0.03657h526.061213a40.446555 40.446555 0 1 1 0 80.819971H121.485947A40.227135 40.227135 0 0 0 81.368523 120.717974v774.994036a40.227135 40.227135 0 0 0 40.117424 39.861434h808.016856a40.227135 40.227135 0 0 0 40.117425-39.861434V420.592979c0-22.380915 18.138781-40.409985 40.665976-40.409986 22.563766 0 40.702546 18.02907 40.702546 40.409986v480.092568c0 63.339452-52.222135 115.195886-116.000428 115.195886H115.963858z m192.395415-213.020964a38.398629 38.398629 0 0 1-26.91561-10.897896 38.142638 38.142638 0 0 1-9.873933-36.570123l52.734116-191.737152a8.776829 8.776829 0 0 1 2.194208-3.803293c0-1.097104 0.548552-2.194207 2.194207-3.291311L841.003107 47.541159a89.45052 89.45052 0 0 1 62.096068-25.123674c26.95218 0 53.86779 11.483018 73.652227 31.157744l48.382272 48.053141c19.784436 19.638156 31.340595 46.444056 31.340595 73.176816 0 24.02657-8.776829 45.858934-25.306525 61.730366L518.930038 745.518517a13.274954 13.274954 0 0 1-9.873933 3.839863h-1.097104l-190.201207 51.344452c-2.194207 1.609085-5.485518 2.194207-9.361951 2.194207zM362.775615 711.691154l80.271419-21.832363-58.292775-57.890504-21.942074 79.722867z m142.916039-66.630763l361.678511-359.338024-75.297882-75.919574-362.227063 359.886575 75.846434 75.371023z m421.616942-418.362202l47.248598-46.956037a13.530945 13.530945 0 0 0 3.876433-10.349345c0-5.485518-2.194207-10.385915-6.582622-14.774329L923.395593 106.528767a21.320381 21.320381 0 0 0-14.8109-5.9975c-4.388415 0-7.679726 1.097104-10.459055 3.803292l-46.736616 46.444056 75.883004 75.919574z" p-id="6361" fill="#ffffff"></path></svg>