<?xml version="1.0" standalone="no"?><!DOCTYPE svg PUBLIC "-//W3C//DTD SVG 1.1//EN" "http://www.w3.org/Graphics/SVG/1.1/DTD/svg11.dtd"><svg t="1556402837879" class="icon" style="" viewBox="0 0 1024 1024" version="1.1" xmlns="http://www.w3.org/2000/svg" p-id="12657" xmlns:xlink="http://www.w3.org/1999/xlink" width="200" height="200"><defs><style type="text/css"></style></defs><path d="M786.863158 988.070175H237.136842C120.364912 988.070175 26.947368 894.652632 26.947368 777.880702V296.421053C26.947368 179.649123 120.364912 86.231579 237.136842 86.231579h549.726316c116.77193 0 210.189474 93.417544 210.189474 210.189474v481.459649c0 116.77193-93.417544 210.189474-210.189474 210.189473zM237.136842 140.126316c-86.231579 0-156.294737 70.063158-156.294737 156.294737v481.459649c0 86.231579 70.063158 156.294737 156.294737 156.294737h549.726316c86.231579 0 156.294737-70.063158 156.294737-156.294737V296.421053c0-86.231579-70.063158-156.294737-156.294737-156.294737H237.136842z" p-id="12658" fill="#ffffff"></path><path d="M271.270175 526.37193h481.45965c19.761404 0 34.133333 16.168421 34.133333 34.133333 0 19.761404-16.168421 34.133333-34.133333 34.133333H271.270175c-19.761404 0-34.133333-16.168421-34.133333-34.133333 0-19.761404 16.168421-34.133333 34.133333-34.133333zM73.65614 343.129825H934.175439c19.761404 0 37.726316 16.168421 37.726315 34.133333 0 19.761404-16.168421 34.133333-37.726315 34.133333H73.65614C52.098246 411.396491 35.929825 395.22807 35.929825 377.263158c0-19.761404 16.168421-34.133333 37.726315-34.133333zM317.978947 44.912281c19.761404 0 34.133333 16.168421 34.133334 34.133333v114.975439c0 19.761404-16.168421 34.133333-34.133334 34.133333-19.761404 0-34.133333-16.168421-34.133333-34.133333V79.045614c0-17.964912 14.37193-34.133333 34.133333-34.133333zM706.021053 44.912281c19.761404 0 34.133333 16.168421 34.133333 34.133333v114.975439c0 19.761404-16.168421 34.133333-34.133333 34.133333-19.761404 0-34.133333-16.168421-34.133334-34.133333V79.045614c0-17.964912 16.168421-34.133333 34.133334-34.133333zM271.270175 686.259649h298.217544c19.761404 0 34.133333 16.168421 34.133334 34.133333 0 19.761404-16.168421 34.133333-34.133334 34.133334H271.270175c-19.761404 0-34.133333-16.168421-34.133333-34.133334 0-17.964912 16.168421-34.133333 34.133333-34.133333z" p-id="12659" fill="#ffffff"></path></svg>