<?xml version="1.0" standalone="no"?><!DOCTYPE svg PUBLIC "-//W3C//DTD SVG 1.1//EN" "http://www.w3.org/Graphics/SVG/1.1/DTD/svg11.dtd"><svg t="1556403386173" class="icon" style="" viewBox="0 0 1025 1024" version="1.1" xmlns="http://www.w3.org/2000/svg" p-id="21210" xmlns:xlink="http://www.w3.org/1999/xlink" width="200.1953125" height="200"><defs><style type="text/css"></style></defs><path d="M512 0.02249C229.259773 0.02249 0 229.237284 0 512s229.237284 511.97751 512 511.97751c282.785206 0 512-229.214794 512-511.97751S794.785206 0.02249 512 0.02249zM512 153.109725c93.557059 0 169.369762 75.835193 169.369762 169.347272 0 93.534569-75.812703 169.347272-169.369762 169.347272-93.512079 0-169.324783-75.812703-169.324783-169.347272C342.675217 228.944918 418.487921 153.109725 512 153.109725zM511.887552 890.118949c-93.309672 0-178.770447-33.981903-244.687692-90.228586-16.05763-13.696214-25.323377-33.779496-25.323377-54.852324 0-94.83897 76.75727-170.741632 171.61873-170.741632l197.054555 0c94.88395 0 171.348854 75.902662 171.348854 170.741632 0 21.095318-9.220768 41.13362-25.300887 54.829834C690.702978 856.137046 605.219714 890.118949 511.887552 890.118949z" p-id="21211" fill="#ffffff"></path></svg>