<?xml version="1.0" standalone="no"?><!DOCTYPE svg PUBLIC "-//W3C//DTD SVG 1.1//EN" "http://www.w3.org/Graphics/SVG/1.1/DTD/svg11.dtd"><svg t="1556498654846" class="icon" style="" viewBox="0 0 1024 1024" version="1.1" xmlns="http://www.w3.org/2000/svg" p-id="1099" xmlns:xlink="http://www.w3.org/1999/xlink" width="200" height="200"><defs><style type="text/css"></style></defs><path d="M512 0C229.888 0 0 229.888 0 512s229.888 512 512 512 512-229.888 512-512S794.112 0 512 0z m442.368 512c0 243.712-198.144 442.368-442.368 442.368-243.712 0-442.368-198.144-442.368-442.368 0-243.712 198.144-442.368 442.368-442.368 243.712 0 442.368 198.656 442.368 442.368z" p-id="1100"></path><path d="M546.816 498.176V232.96c0-19.456-15.872-34.816-34.816-34.816-19.456 0-34.816 15.872-34.816 34.816v280.064c0 9.216 3.584 17.92 10.24 24.576l130.56 130.048c6.656 6.656 15.36 10.24 24.576 10.24 9.216 0 17.92-3.584 24.576-10.24 6.656-6.656 10.24-15.36 10.24-24.576 0-9.216-3.584-17.92-10.24-24.576l-120.32-120.32z" p-id="1101"></path></svg>