<svg width="16" height="16" viewBox="0 0 16 16" fill="none" xmlns="http://www.w3.org/2000/svg">
<mask id="path-1-outside-1" maskUnits="userSpaceOnUse" x="0" y="5" width="16" height="10" fill="black">
<rect fill="white" y="5" width="16" height="10"/>
<path d="M14.9684 6.50156V6.47969C14.9684 6.475 14.9684 6.47188 14.9668 6.46719C14.9668 6.4625 14.9668 6.45938 14.9652 6.45469C14.9652 6.45 14.9637 6.44375 14.9637 6.43906C14.9637 6.43594 14.9637 6.43281 14.9621 6.42969C14.9605 6.425 14.9605 6.41875 14.959 6.41406C14.959 6.41094 14.9574 6.40938 14.9574 6.40625C14.9559 6.40156 14.9559 6.39531 14.9543 6.39063C14.9543 6.3875 14.9527 6.38594 14.9527 6.38281C14.9512 6.37813 14.9496 6.37188 14.948 6.36719C14.948 6.36406 14.9465 6.3625 14.9465 6.35938L14.9418 6.34531C14.9402 6.34219 14.9402 6.33906 14.9387 6.33594C14.9371 6.33125 14.9355 6.32813 14.934 6.32344C14.9324 6.32031 14.9309 6.31719 14.9293 6.3125C14.9277 6.30938 14.9262 6.30469 14.9246 6.30156C14.923 6.29688 14.9215 6.29375 14.9199 6.29063L14.9152 6.28125C14.9137 6.27656 14.9105 6.27344 14.909 6.26875C14.9074 6.26563 14.9059 6.26406 14.9043 6.26094C14.9012 6.25625 14.8996 6.25156 14.8965 6.24688C14.8949 6.24375 14.8934 6.24219 14.8918 6.23906C14.8887 6.23438 14.8855 6.22969 14.884 6.22656C14.8824 6.22344 14.8809 6.22188 14.8793 6.21875C14.8762 6.21406 14.873 6.21094 14.8699 6.20625C14.8684 6.20313 14.8652 6.20156 14.8637 6.19844C14.8605 6.19531 14.8574 6.19063 14.8543 6.1875C14.8512 6.18438 14.848 6.18125 14.8449 6.17656C14.8434 6.17344 14.8402 6.17188 14.8387 6.16875C14.8277 6.15625 14.8152 6.14531 14.8043 6.13438C14.8012 6.13125 14.798 6.12969 14.7965 6.12656C14.7934 6.12344 14.7902 6.12031 14.7855 6.11719C14.7824 6.11406 14.7777 6.11094 14.7746 6.10781C14.7715 6.10625 14.7699 6.10313 14.7668 6.10156C14.7621 6.09844 14.759 6.09531 14.7543 6.09219C14.7527 6.09062 14.7496 6.08906 14.748 6.0875L14.734 6.07813C14.7324 6.07656 14.7293 6.075 14.7277 6.07344C14.723 6.07031 14.7184 6.06875 14.7137 6.06563C14.7105 6.06406 14.709 6.0625 14.7059 6.06094C14.7012 6.05937 14.6965 6.05625 14.6934 6.05469L14.684 6.05C14.6793 6.04844 14.6762 6.04688 14.6715 6.04375C14.6684 6.04219 14.6652 6.04063 14.6605 6.03906C14.6574 6.0375 14.6527 6.03594 14.6496 6.03438C14.6449 6.03281 14.6418 6.03125 14.6371 6.02969C14.634 6.02813 14.6309 6.02813 14.6277 6.02656L14.6137 6.02188C14.6105 6.02031 14.6074 6.02031 14.6043 6.01875L14.5902 6.01406C14.5871 6.01406 14.584 6.0125 14.5824 6.0125C14.5777 6.01094 14.5715 6.00938 14.5668 6.00938C14.5637 6.00938 14.5605 6.00781 14.5574 6.00781C14.5527 6.00625 14.5465 6.00625 14.5418 6.00469C14.5387 6.00469 14.5355 6.00313 14.5324 6.00313C14.5277 6.00313 14.523 6.00156 14.5184 6.00156C14.5137 6.00156 14.509 6.00156 14.5043 6H10.9309C10.6543 6 10.4309 6.22344 10.4309 6.5C10.4309 6.77656 10.6543 7 10.9309 7H13.2605L8.86836 11.3969L6.27461 8.80313C6.18086 8.70938 6.0543 8.65625 5.92148 8.65625C5.78867 8.65625 5.66211 8.70938 5.56836 8.80313L1.14648 13.225C0.951172 13.4203 0.951172 13.7375 1.14648 13.9328C1.24336 14.0297 1.37148 14.0797 1.49961 14.0797C1.62773 14.0797 1.75586 14.0313 1.85273 13.9328L5.92148 9.86406L8.51523 12.4578C8.60898 12.5516 8.73555 12.6047 8.86836 12.6047C9.00117 12.6047 9.12773 12.5516 9.22148 12.4578L13.9684 7.71094V10.0406C13.9684 10.3172 14.1918 10.5406 14.4684 10.5406C14.7449 10.5406 14.9684 10.3172 14.9684 10.0406V6.50313V6.50156Z"/>
</mask>
<path d="M14.9684 6.50156V6.47969C14.9684 6.475 14.9684 6.47188 14.9668 6.46719C14.9668 6.4625 14.9668 6.45938 14.9652 6.45469C14.9652 6.45 14.9637 6.44375 14.9637 6.43906C14.9637 6.43594 14.9637 6.43281 14.9621 6.42969C14.9605 6.425 14.9605 6.41875 14.959 6.41406C14.959 6.41094 14.9574 6.40938 14.9574 6.40625C14.9559 6.40156 14.9559 6.39531 14.9543 6.39063C14.9543 6.3875 14.9527 6.38594 14.9527 6.38281C14.9512 6.37813 14.9496 6.37188 14.948 6.36719C14.948 6.36406 14.9465 6.3625 14.9465 6.35938L14.9418 6.34531C14.9402 6.34219 14.9402 6.33906 14.9387 6.33594C14.9371 6.33125 14.9355 6.32813 14.934 6.32344C14.9324 6.32031 14.9309 6.31719 14.9293 6.3125C14.9277 6.30938 14.9262 6.30469 14.9246 6.30156C14.923 6.29688 14.9215 6.29375 14.9199 6.29063L14.9152 6.28125C14.9137 6.27656 14.9105 6.27344 14.909 6.26875C14.9074 6.26563 14.9059 6.26406 14.9043 6.26094C14.9012 6.25625 14.8996 6.25156 14.8965 6.24688C14.8949 6.24375 14.8934 6.24219 14.8918 6.23906C14.8887 6.23438 14.8855 6.22969 14.884 6.22656C14.8824 6.22344 14.8809 6.22188 14.8793 6.21875C14.8762 6.21406 14.873 6.21094 14.8699 6.20625C14.8684 6.20313 14.8652 6.20156 14.8637 6.19844C14.8605 6.19531 14.8574 6.19063 14.8543 6.1875C14.8512 6.18438 14.848 6.18125 14.8449 6.17656C14.8434 6.17344 14.8402 6.17188 14.8387 6.16875C14.8277 6.15625 14.8152 6.14531 14.8043 6.13438C14.8012 6.13125 14.798 6.12969 14.7965 6.12656C14.7934 6.12344 14.7902 6.12031 14.7855 6.11719C14.7824 6.11406 14.7777 6.11094 14.7746 6.10781C14.7715 6.10625 14.7699 6.10313 14.7668 6.10156C14.7621 6.09844 14.759 6.09531 14.7543 6.09219C14.7527 6.09062 14.7496 6.08906 14.748 6.0875L14.734 6.07813C14.7324 6.07656 14.7293 6.075 14.7277 6.07344C14.723 6.07031 14.7184 6.06875 14.7137 6.06563C14.7105 6.06406 14.709 6.0625 14.7059 6.06094C14.7012 6.05937 14.6965 6.05625 14.6934 6.05469L14.684 6.05C14.6793 6.04844 14.6762 6.04688 14.6715 6.04375C14.6684 6.04219 14.6652 6.04063 14.6605 6.03906C14.6574 6.0375 14.6527 6.03594 14.6496 6.03438C14.6449 6.03281 14.6418 6.03125 14.6371 6.02969C14.634 6.02813 14.6309 6.02813 14.6277 6.02656L14.6137 6.02188C14.6105 6.02031 14.6074 6.02031 14.6043 6.01875L14.5902 6.01406C14.5871 6.01406 14.584 6.0125 14.5824 6.0125C14.5777 6.01094 14.5715 6.00938 14.5668 6.00938C14.5637 6.00938 14.5605 6.00781 14.5574 6.00781C14.5527 6.00625 14.5465 6.00625 14.5418 6.00469C14.5387 6.00469 14.5355 6.00313 14.5324 6.00313C14.5277 6.00313 14.523 6.00156 14.5184 6.00156C14.5137 6.00156 14.509 6.00156 14.5043 6H10.9309C10.6543 6 10.4309 6.22344 10.4309 6.5C10.4309 6.77656 10.6543 7 10.9309 7H13.2605L8.86836 11.3969L6.27461 8.80313C6.18086 8.70938 6.0543 8.65625 5.92148 8.65625C5.78867 8.65625 5.66211 8.70938 5.56836 8.80313L1.14648 13.225C0.951172 13.4203 0.951172 13.7375 1.14648 13.9328C1.24336 14.0297 1.37148 14.0797 1.49961 14.0797C1.62773 14.0797 1.75586 14.0313 1.85273 13.9328L5.92148 9.86406L8.51523 12.4578C8.60898 12.5516 8.73555 12.6047 8.86836 12.6047C9.00117 12.6047 9.12773 12.5516 9.22148 12.4578L13.9684 7.71094V10.0406C13.9684 10.3172 14.1918 10.5406 14.4684 10.5406C14.7449 10.5406 14.9684 10.3172 14.9684 10.0406V6.50313V6.50156Z" fill="#F7B633"/>
<path d="M14.9668 6.46719H14.7168V6.50776L14.7296 6.54624L14.9668 6.46719ZM14.9652 6.45469H14.7152V6.49526L14.7281 6.53374L14.9652 6.45469ZM14.9621 6.42969L14.7249 6.50874L14.7306 6.5256L14.7385 6.54149L14.9621 6.42969ZM14.959 6.41406H14.709V6.45463L14.7218 6.49312L14.959 6.41406ZM14.9574 6.40625H15.2074V6.36568L15.1946 6.32719L14.9574 6.40625ZM14.9543 6.39063H14.7043V6.43119L14.7171 6.46968L14.9543 6.39063ZM14.9527 6.38281H15.2027V6.34224L15.1899 6.30376L14.9527 6.38281ZM14.948 6.36719H14.698V6.40776L14.7109 6.44624L14.948 6.36719ZM14.9465 6.35938H15.1965V6.31881L15.1837 6.28032L14.9465 6.35938ZM14.9418 6.34531L15.179 6.26626L15.1733 6.2494L15.1654 6.23351L14.9418 6.34531ZM14.9387 6.33594L14.7015 6.41499L14.7071 6.43185L14.7151 6.44774L14.9387 6.33594ZM14.934 6.32344L15.1712 6.24438L15.1655 6.22753L15.1576 6.21163L14.934 6.32344ZM14.9293 6.3125L15.1665 6.23344L15.1608 6.21659L15.1529 6.2007L14.9293 6.3125ZM14.9246 6.30156L14.6874 6.38062L14.6931 6.39747L14.701 6.41337L14.9246 6.30156ZM14.9199 6.29063L15.1435 6.17882L15.1435 6.17881L14.9199 6.29063ZM14.9152 6.28125L14.6781 6.36031L14.6837 6.37717L14.6916 6.39307L14.9152 6.28125ZM14.909 6.26875L15.1462 6.18969L15.1405 6.17284L15.1326 6.15695L14.909 6.26875ZM14.9043 6.26094L15.1279 6.14913L15.1209 6.13521L15.1123 6.12226L14.9043 6.26094ZM14.8965 6.24688L14.6729 6.35868L14.6798 6.3726L14.6885 6.38555L14.8965 6.24688ZM14.8918 6.23906L15.1154 6.12726L15.1084 6.11334L15.0998 6.10039L14.8918 6.23906ZM14.8793 6.21875L15.1029 6.10695L15.0959 6.09303L15.0873 6.08008L14.8793 6.21875ZM14.8699 6.20625L14.6463 6.31805L14.6533 6.33197L14.6619 6.34493L14.8699 6.20625ZM14.8637 6.19844L15.0873 6.08663L15.0691 6.05035L15.0404 6.02166L14.8637 6.19844ZM14.8449 6.17656L14.6213 6.28837L14.6283 6.30229L14.6369 6.31524L14.8449 6.17656ZM14.8387 6.16875L15.0623 6.05695L15.0479 6.02826L15.0268 6.00412L14.8387 6.16875ZM14.8043 6.13438L14.6275 6.31115L14.8043 6.13438ZM14.7965 6.12656L15.0201 6.01476L15.0019 5.97847L14.9733 5.94979L14.7965 6.12656ZM14.7855 6.11719L14.6088 6.29396L14.6263 6.31147L14.6469 6.3252L14.7855 6.11719ZM14.7746 6.10781L14.9514 5.93104L14.9227 5.90235L14.8864 5.88421L14.7746 6.10781ZM14.7668 6.10156L14.6281 6.30958L14.6411 6.31821L14.655 6.32517L14.7668 6.10156ZM14.7543 6.09219L14.5775 6.26896L14.595 6.28647L14.6156 6.3002L14.7543 6.09219ZM14.748 6.0875L14.9248 5.91072L14.9073 5.89322L14.8867 5.87949L14.748 6.0875ZM14.734 6.07813L14.5572 6.2549L14.5747 6.27241L14.5953 6.28614L14.734 6.07813ZM14.7277 6.07344L14.9045 5.89666L14.887 5.87916L14.8664 5.86543L14.7277 6.07344ZM14.7137 6.06563L14.8523 5.85761L14.8394 5.84898L14.8255 5.84202L14.7137 6.06563ZM14.7059 6.06094L14.8177 5.83733L14.8018 5.82939L14.7849 5.82377L14.7059 6.06094ZM14.6934 6.05469L14.8052 5.83108L14.8052 5.83108L14.6934 6.05469ZM14.684 6.05L14.7958 5.82639L14.7799 5.81845L14.763 5.81283L14.684 6.05ZM14.6715 6.04375L14.8102 5.83574L14.7972 5.8271L14.7833 5.82014L14.6715 6.04375ZM14.6605 6.03906L14.5487 6.26267L14.5646 6.27061L14.5815 6.27623L14.6605 6.03906ZM14.6496 6.03438L14.7614 5.81077L14.7455 5.80282L14.7287 5.7972L14.6496 6.03438ZM14.6371 6.02969L14.5253 6.25329L14.5412 6.26124L14.5581 6.26686L14.6371 6.02969ZM14.6277 6.02656L14.7395 5.80296L14.7236 5.79501L14.7068 5.78939L14.6277 6.02656ZM14.6137 6.02188L14.5019 6.24548L14.5178 6.25343L14.5346 6.25905L14.6137 6.02188ZM14.6043 6.01875L14.7161 5.79514L14.7002 5.7872L14.6834 5.78158L14.6043 6.01875ZM14.5902 6.01406L14.6693 5.77689L14.6308 5.76406H14.5902V6.01406ZM14.5824 6.0125L14.5034 6.24967L14.5419 6.2625H14.5824V6.0125ZM14.5574 6.00781L14.4784 6.24498L14.5169 6.25781H14.5574V6.00781ZM14.5418 6.00469L14.6209 5.76752L14.5824 5.75469H14.5418V6.00469ZM14.5043 6L14.5834 5.76283L14.5449 5.75H14.5043V6ZM13.2605 7L13.4374 7.17668L13.8636 6.75H13.2605V7ZM8.86836 11.3969L8.69158 11.5737L8.86845 11.7505L9.04523 11.5736L8.86836 11.3969ZM6.27461 8.80313L6.45139 8.62635L6.27461 8.80313ZM1.85273 13.9328L1.67595 13.756L1.67455 13.7575L1.85273 13.9328ZM5.92148 9.86406L6.09826 9.68729L5.92148 9.51051L5.74471 9.68729L5.92148 9.86406ZM9.22148 12.4578L9.39826 12.6346L9.22148 12.4578ZM13.9684 7.71094H14.2184V7.10738L13.7916 7.53416L13.9684 7.71094ZM15.2184 6.50156V6.47969H14.7184V6.50156H15.2184ZM15.2184 6.47969C15.2184 6.47271 15.2193 6.43422 15.204 6.38813L14.7296 6.54624C14.7246 6.53113 14.7211 6.51491 14.7194 6.4983C14.7181 6.4856 14.7184 6.47469 14.7184 6.47969H15.2184ZM15.2168 6.46719C15.2168 6.46015 15.2178 6.42169 15.2024 6.37563L14.7281 6.53374C14.723 6.51865 14.7195 6.50244 14.7178 6.48583C14.7166 6.47313 14.7168 6.46221 14.7168 6.46719H15.2168ZM15.2152 6.45469C15.2152 6.4473 15.2149 6.44091 15.2146 6.43592C15.2142 6.43089 15.2138 6.42659 15.2135 6.42333C15.2131 6.42006 15.2127 6.41731 15.2125 6.41545C15.2122 6.41367 15.212 6.41205 15.2119 6.41153C15.2118 6.41068 15.2119 6.41094 15.2119 6.41136C15.212 6.41186 15.2122 6.41327 15.2124 6.41522C15.2126 6.41716 15.2129 6.42018 15.2132 6.42394C15.2134 6.42767 15.2137 6.43284 15.2137 6.43906H14.7137C14.7137 6.44645 14.714 6.45284 14.7143 6.45783C14.7147 6.46286 14.7151 6.46716 14.7154 6.47042C14.7158 6.47369 14.7162 6.47644 14.7164 6.4783C14.7167 6.48008 14.7169 6.4817 14.717 6.48222C14.7171 6.48307 14.717 6.48281 14.717 6.48239C14.7169 6.48189 14.7167 6.48048 14.7165 6.47853C14.7163 6.47659 14.716 6.47357 14.7157 6.46981C14.7155 6.46608 14.7152 6.46091 14.7152 6.45469H15.2152ZM15.2137 6.43906C15.2137 6.43892 15.2137 6.43423 15.2135 6.42889C15.2133 6.42309 15.2129 6.41414 15.2115 6.40334C15.2087 6.3807 15.202 6.35044 15.1857 6.31788L14.7385 6.54149C14.71 6.48454 14.7137 6.42969 14.7137 6.43906H15.2137ZM15.1993 6.35063C15.2017 6.35785 15.2034 6.3641 15.2045 6.3689C15.2057 6.37372 15.2065 6.37769 15.207 6.38042C15.2075 6.38314 15.2078 6.38519 15.208 6.38609C15.2081 6.38687 15.2082 6.38744 15.208 6.38654C15.208 6.38607 15.2077 6.38413 15.2074 6.382C15.207 6.37975 15.2065 6.37635 15.2057 6.37231C15.205 6.36827 15.2039 6.363 15.2025 6.35693C15.201 6.35086 15.199 6.3434 15.1962 6.33501L14.7218 6.49312C14.7194 6.4859 14.7177 6.47965 14.7166 6.47485C14.7154 6.47003 14.7146 6.46606 14.7141 6.46333C14.7136 6.46061 14.7133 6.45856 14.7131 6.45766C14.713 6.45688 14.7129 6.45632 14.7131 6.45721C14.7131 6.45768 14.7134 6.45962 14.7137 6.46175C14.7141 6.464 14.7146 6.4674 14.7154 6.47144C14.7161 6.47548 14.7172 6.48075 14.7186 6.48682C14.7201 6.49289 14.7221 6.50035 14.7249 6.50874L15.1993 6.35063ZM15.209 6.41406C15.209 6.40313 15.2083 6.39258 15.2071 6.38247C15.2058 6.3724 15.2041 6.36343 15.2023 6.35573C15.2006 6.34815 15.1988 6.34197 15.1975 6.33784C15.1969 6.33578 15.1964 6.33409 15.196 6.33299C15.1957 6.33198 15.1954 6.3311 15.1954 6.33107C15.1951 6.33032 15.196 6.33293 15.197 6.33607C15.198 6.3396 15.1997 6.34517 15.2013 6.35212C15.2029 6.35918 15.2045 6.36749 15.2056 6.37687C15.2068 6.38628 15.2074 6.3961 15.2074 6.40625H14.7074C14.7074 6.41718 14.7081 6.42773 14.7094 6.43784C14.7106 6.44791 14.7123 6.45689 14.7141 6.46458C14.7158 6.47216 14.7176 6.47834 14.7189 6.48247C14.7195 6.48453 14.72 6.48622 14.7204 6.48732C14.7207 6.48833 14.721 6.48921 14.721 6.48924C14.7213 6.48999 14.7204 6.48738 14.7194 6.48424C14.7184 6.48071 14.7167 6.47514 14.7151 6.4682C14.7135 6.46113 14.7119 6.45282 14.7108 6.44344C14.7096 6.43403 14.709 6.42421 14.709 6.41406H15.209ZM15.1946 6.32719C15.197 6.33441 15.1987 6.34065 15.1998 6.34546C15.201 6.35027 15.2018 6.35424 15.2023 6.35696C15.2028 6.35968 15.2031 6.36173 15.2033 6.36263C15.2034 6.36341 15.2035 6.36398 15.2033 6.36308C15.2033 6.36261 15.203 6.36067 15.2027 6.35854C15.2023 6.35629 15.2018 6.35289 15.201 6.34886C15.2003 6.34482 15.1992 6.33955 15.1978 6.33348C15.1963 6.32742 15.1943 6.31996 15.1915 6.31157L14.7171 6.46968C14.7147 6.46246 14.713 6.45622 14.7119 6.45142C14.7107 6.44661 14.7099 6.44263 14.7094 6.43991C14.7089 6.43719 14.7086 6.43514 14.7084 6.43424C14.7083 6.43347 14.7082 6.4329 14.7084 6.4338C14.7084 6.43427 14.7087 6.4362 14.709 6.43833C14.7094 6.44058 14.7099 6.44398 14.7107 6.44802C14.7114 6.45206 14.7125 6.45733 14.714 6.46339C14.7154 6.46946 14.7175 6.47692 14.7202 6.48531L15.1946 6.32719ZM15.2043 6.39063C15.2043 6.3797 15.2036 6.36916 15.2024 6.35905C15.2011 6.34899 15.1994 6.34002 15.1977 6.33232C15.1959 6.32475 15.1941 6.31857 15.1929 6.31444C15.1922 6.31238 15.1917 6.3107 15.1913 6.3096C15.191 6.30859 15.1907 6.3077 15.1907 6.30768C15.1904 6.30693 15.1913 6.30954 15.1923 6.31267C15.1934 6.3162 15.195 6.32177 15.1966 6.32871C15.1982 6.33577 15.1998 6.34408 15.2009 6.35345C15.2021 6.36286 15.2027 6.37267 15.2027 6.38281H14.7027C14.7027 6.39374 14.7034 6.40428 14.7047 6.41438C14.7059 6.42445 14.7076 6.43342 14.7094 6.44111C14.7111 6.44869 14.7129 6.45487 14.7142 6.459C14.7148 6.46105 14.7153 6.46274 14.7157 6.46384C14.716 6.46485 14.7163 6.46573 14.7163 6.46576C14.7166 6.46651 14.7157 6.4639 14.7147 6.46077C14.7137 6.45723 14.7121 6.45167 14.7105 6.44473C14.7088 6.43767 14.7072 6.42936 14.7061 6.41999C14.7049 6.41058 14.7043 6.40077 14.7043 6.39063H15.2043ZM15.1899 6.30376C15.1907 6.30629 15.1912 6.30796 15.1913 6.30803C15.1913 6.30809 15.1912 6.30792 15.1908 6.30632C15.1904 6.30518 15.1897 6.30262 15.1889 6.29993C15.1881 6.29722 15.1868 6.293 15.1852 6.28813L14.7109 6.44624C14.71 6.44371 14.7095 6.44204 14.7095 6.44197C14.7095 6.44191 14.7096 6.44208 14.71 6.44368C14.7103 6.44482 14.7111 6.44738 14.7119 6.45007C14.7127 6.45278 14.7139 6.457 14.7156 6.46187L15.1899 6.30376ZM15.198 6.36719C15.198 6.35626 15.1974 6.34571 15.1961 6.3356C15.1949 6.32553 15.1932 6.31655 15.1914 6.30885C15.1896 6.30127 15.1879 6.2951 15.1866 6.29096C15.186 6.2889 15.1854 6.28722 15.1851 6.28612C15.1847 6.28511 15.1844 6.28422 15.1844 6.2842C15.1842 6.28345 15.1851 6.28606 15.186 6.28919C15.1871 6.29273 15.1887 6.29829 15.1903 6.30524C15.192 6.3123 15.1935 6.32062 15.1947 6.33C15.1958 6.33941 15.1965 6.34922 15.1965 6.35938H14.6965C14.6965 6.37031 14.6972 6.38086 14.6984 6.39096C14.6997 6.40104 14.7014 6.41001 14.7031 6.41771C14.7049 6.42529 14.7067 6.43147 14.7079 6.4356C14.7086 6.43766 14.7091 6.43935 14.7095 6.44044C14.7098 6.44146 14.7101 6.44234 14.7101 6.44236C14.7104 6.44312 14.7095 6.4405 14.7085 6.43737C14.7074 6.43384 14.7058 6.42827 14.7042 6.42132C14.7026 6.41426 14.701 6.40594 14.6998 6.39657C14.6987 6.38716 14.698 6.37734 14.698 6.36719H15.198ZM15.1837 6.28032L15.179 6.26626L14.7046 6.42437L14.7093 6.43843L15.1837 6.28032ZM15.1654 6.23351C15.1725 6.24775 15.1769 6.26009 15.1795 6.2684C15.1808 6.27246 15.1817 6.27573 15.1822 6.27761C15.1826 6.27928 15.1829 6.28067 15.1828 6.27999C15.1827 6.27989 15.1822 6.27772 15.1816 6.27527C15.1808 6.2726 15.1797 6.26856 15.1782 6.26371C15.1751 6.25384 15.1702 6.23993 15.1623 6.22413L14.7151 6.44774C14.7079 6.4335 14.7036 6.42116 14.701 6.41285C14.6997 6.40879 14.6988 6.40552 14.6983 6.40364C14.6979 6.40197 14.6975 6.40058 14.6977 6.40127C14.6977 6.40136 14.6983 6.40353 14.6989 6.40598C14.6996 6.40865 14.7007 6.41269 14.7022 6.41754C14.7053 6.42741 14.7103 6.44132 14.7182 6.45712L15.1654 6.23351ZM15.1758 6.25688C15.1725 6.24672 15.1691 6.23849 15.1684 6.23684C15.1675 6.23459 15.1693 6.2389 15.1712 6.24438L14.6968 6.40249C14.7002 6.41266 14.7035 6.42088 14.7042 6.42253C14.7051 6.42479 14.7033 6.42047 14.7015 6.41499L15.1758 6.25688ZM15.1576 6.21163C15.1566 6.2096 15.1582 6.21286 15.1601 6.21703C15.1623 6.22197 15.1645 6.22752 15.1665 6.23344L14.6921 6.39156C14.6996 6.4141 14.708 6.43052 14.7104 6.43524L15.1576 6.21163ZM15.1529 6.2007C15.1559 6.20678 15.1579 6.21145 15.1585 6.2129C15.1592 6.21442 15.1596 6.21558 15.1591 6.21419C15.1588 6.21363 15.1576 6.21051 15.1562 6.20714C15.1548 6.20383 15.152 6.19741 15.1482 6.18976L14.701 6.41337C14.698 6.40728 14.696 6.40261 14.6954 6.40116C14.6947 6.39965 14.6943 6.39848 14.6948 6.39988C14.6951 6.40044 14.6963 6.40355 14.6977 6.40693C14.6991 6.41023 14.7019 6.41665 14.7057 6.4243L15.1529 6.2007ZM15.1618 6.22251C15.1543 6.19996 15.1459 6.18354 15.1435 6.17882L14.6963 6.40243C14.6973 6.40446 14.6957 6.4012 14.6938 6.39704C14.6916 6.39209 14.6894 6.38654 14.6874 6.38062L15.1618 6.22251ZM15.1435 6.17881L15.1388 6.16943L14.6916 6.39307L14.6963 6.40244L15.1435 6.17881ZM15.1524 6.20219C15.1467 6.18509 15.1402 6.17145 15.1353 6.16198C15.1328 6.15734 15.1307 6.15354 15.1292 6.15101C15.1279 6.14867 15.1266 6.14662 15.1265 6.14639C15.126 6.14564 15.1267 6.14672 15.1275 6.14807C15.1284 6.14961 15.13 6.1524 15.1319 6.15603C15.1357 6.16344 15.1412 6.17494 15.1462 6.18969L14.6718 6.34781C14.6775 6.36491 14.684 6.37855 14.6889 6.38802C14.6914 6.39266 14.6935 6.39646 14.695 6.39899C14.6964 6.40133 14.6976 6.40338 14.6977 6.40361C14.6982 6.40436 14.6975 6.40328 14.6967 6.40193C14.6958 6.40039 14.6943 6.3976 14.6924 6.39397C14.6885 6.38656 14.683 6.37506 14.6781 6.36031L15.1524 6.20219ZM15.1326 6.15695C15.1241 6.14 15.1154 6.12731 15.1147 6.12617C15.1138 6.12496 15.121 6.13531 15.1279 6.14913L14.6807 6.37274C14.6892 6.38969 14.6979 6.40238 14.6986 6.40351C14.6994 6.40473 14.6923 6.39437 14.6854 6.38055L15.1326 6.15695ZM15.1123 6.12226C15.1169 6.12909 15.1201 6.13482 15.122 6.13835C15.1237 6.14137 15.1249 6.14384 15.124 6.1421C15.1237 6.14149 15.1213 6.13668 15.1184 6.13132C15.1152 6.12545 15.1106 6.11738 15.1045 6.1082L14.6885 6.38555C14.6839 6.37872 14.6807 6.37299 14.6788 6.36946C14.6771 6.36645 14.6759 6.36397 14.6768 6.36571C14.6771 6.36632 14.6795 6.37113 14.6824 6.37649C14.6856 6.38237 14.6902 6.39044 14.6963 6.39961L15.1123 6.12226ZM15.1201 6.13507C15.1116 6.11811 15.1029 6.1054 15.1021 6.10427C15.1013 6.10306 15.1085 6.11342 15.1154 6.12726L14.6682 6.35087C14.6767 6.36783 14.6854 6.38054 14.6861 6.38167C14.687 6.38288 14.6798 6.37252 14.6729 6.35868L15.1201 6.13507ZM15.0998 6.10039C15.0979 6.09751 15.0979 6.09749 15.0982 6.09801C15.0985 6.09844 15.0994 6.09995 15.1008 6.10218C15.1019 6.10416 15.1045 6.10863 15.1076 6.11476L14.6604 6.33837C14.6672 6.35198 14.6741 6.36287 14.6764 6.36644C14.6795 6.37126 14.6826 6.37593 14.6838 6.37774L15.0998 6.10039ZM15.1076 6.11476C15.0991 6.09781 15.0904 6.08512 15.0897 6.08399C15.0888 6.08277 15.096 6.09313 15.1029 6.10695L14.6557 6.33055C14.6642 6.3475 14.6729 6.36019 14.6736 6.36133C14.6744 6.36254 14.6673 6.35219 14.6604 6.33837L15.1076 6.11476ZM15.0873 6.08008C15.0789 6.06749 15.0709 6.05763 15.0698 6.05633C15.0677 6.05372 15.0727 6.05968 15.0779 6.06758L14.6619 6.34493C14.6703 6.35751 14.6783 6.36737 14.6794 6.36867C14.6815 6.37128 14.6765 6.36532 14.6713 6.35743L15.0873 6.08008ZM15.0935 6.09445C15.0818 6.07109 15.0688 6.0538 15.0593 6.04266C15.0547 6.03718 15.0507 6.03287 15.0481 6.03017C15.0468 6.02879 15.0457 6.02766 15.0449 6.02692C15.0442 6.02624 15.0436 6.02563 15.0436 6.02556C15.043 6.02496 15.0445 6.0265 15.0463 6.0284C15.0484 6.0305 15.0518 6.0342 15.0559 6.03905C15.0643 6.04891 15.0764 6.06484 15.0873 6.08663L14.6401 6.31024C14.6517 6.3336 14.6648 6.35089 14.6742 6.36203C14.6789 6.36751 14.6829 6.37182 14.6855 6.37452C14.6868 6.3759 14.6879 6.37703 14.6887 6.37776C14.6893 6.37845 14.69 6.37906 14.69 6.37913C14.6906 6.37973 14.6891 6.37819 14.6873 6.37629C14.6852 6.37418 14.6818 6.37049 14.6777 6.36564C14.6693 6.35577 14.6572 6.33985 14.6463 6.31805L15.0935 6.09445ZM15.0404 6.02166C15.0466 6.02783 15.0509 6.03285 15.0526 6.03482C15.0542 6.03672 15.0554 6.03825 15.0542 6.0368C15.0538 6.03629 15.051 6.03281 15.0479 6.02906C15.0447 6.02523 15.0388 6.01846 15.0311 6.01072L14.6775 6.36428C14.6713 6.35811 14.6671 6.35309 14.6654 6.35112C14.6638 6.34922 14.6626 6.34769 14.6638 6.34913C14.6642 6.34965 14.6669 6.35312 14.6701 6.35688C14.6733 6.3607 14.6792 6.36748 14.6869 6.37521L15.0404 6.02166ZM15.0311 6.01072C15.0282 6.00785 15.041 6.01998 15.0529 6.03789L14.6369 6.31524C14.6551 6.34252 14.6741 6.3609 14.6775 6.36428L15.0311 6.01072ZM15.0685 6.06476C15.0569 6.04141 15.0438 6.02412 15.0344 6.01299C15.0297 6.0075 15.0257 6.0032 15.0231 6.0005C15.0218 5.99912 15.0207 5.99799 15.0199 5.99725C15.0193 5.99657 15.0187 5.99596 15.0186 5.99589C15.018 5.99529 15.0195 5.99683 15.0214 5.99873C15.0234 6.00083 15.0268 6.00453 15.0309 6.00937C15.0393 6.01924 15.0514 6.03516 15.0623 6.05695L14.6151 6.28055C14.6267 6.3039 14.6398 6.32119 14.6492 6.33233C14.6539 6.33781 14.6579 6.34211 14.6605 6.34482C14.6618 6.34619 14.6629 6.34732 14.6637 6.34806C14.6643 6.34875 14.6649 6.34935 14.665 6.34942C14.6656 6.35002 14.6641 6.34848 14.6622 6.34659C14.6602 6.34448 14.6568 6.34079 14.6526 6.33594C14.6443 6.32607 14.6322 6.31015 14.6213 6.28837L15.0685 6.06476ZM15.0268 6.00412C15.0145 5.99001 15.0027 5.97847 14.9952 5.97123C14.9848 5.96113 14.9848 5.96138 14.9811 5.9576L14.6275 6.31115C14.6322 6.31584 14.6366 6.32008 14.6398 6.32316C14.6437 6.32687 14.6453 6.3284 14.6477 6.33072C14.652 6.33481 14.6519 6.33499 14.6505 6.33338L15.0268 6.00412ZM14.9811 5.9576C14.973 5.94955 14.9661 5.94362 14.9626 5.94073C14.9618 5.94 14.961 5.93939 14.9606 5.93901C14.9603 5.93882 14.9601 5.93865 14.96 5.93855C14.9598 5.93841 14.9598 5.93842 14.9598 5.93837C14.9595 5.93815 14.9608 5.93921 14.9625 5.94065C14.9682 5.94554 14.9981 5.97071 15.0201 6.01476L14.5729 6.23837C14.5965 6.28554 14.6287 6.31305 14.6371 6.32028C14.6395 6.32231 14.6415 6.32396 14.6419 6.32434C14.6429 6.32513 14.6421 6.32444 14.6413 6.32382C14.6394 6.3222 14.634 6.31764 14.6275 6.31115L14.9811 5.9576ZM14.9733 5.94979C14.9699 5.94638 14.9515 5.92735 14.9242 5.90917L14.6469 6.3252C14.629 6.31327 14.6169 6.30049 14.6197 6.30334L14.9733 5.94979ZM14.9623 5.94041C14.9546 5.93268 14.9478 5.92684 14.944 5.92362C14.9402 5.92046 14.9368 5.91769 14.9362 5.91728C14.9348 5.91613 14.9363 5.91733 14.9382 5.91893C14.9402 5.92059 14.9452 5.92487 14.9514 5.93104L14.5978 6.28459C14.6056 6.29232 14.6123 6.29816 14.6162 6.30138C14.6199 6.30454 14.6234 6.30731 14.6239 6.30772C14.6253 6.30887 14.6238 6.30767 14.6219 6.30607C14.62 6.30441 14.6149 6.30013 14.6088 6.29396L14.9623 5.94041ZM14.8864 5.88421C14.9082 5.8951 14.9241 5.9072 14.934 5.91555C14.9388 5.91965 14.9425 5.92312 14.9446 5.92514C14.9465 5.92695 14.9481 5.92851 14.9475 5.92791C14.9474 5.92784 14.9468 5.92723 14.9461 5.92655C14.9454 5.92582 14.9442 5.92471 14.9429 5.92339C14.9402 5.9208 14.9359 5.91677 14.9304 5.91213C14.9192 5.90271 14.902 5.88963 14.8786 5.87796L14.655 6.32517C14.6332 6.31427 14.6173 6.30218 14.6074 6.29383C14.6026 6.28972 14.5989 6.28626 14.5968 6.28424C14.5949 6.28242 14.5933 6.28087 14.5939 6.28147C14.594 6.28154 14.5946 6.28214 14.5953 6.28282C14.596 6.28355 14.5972 6.28466 14.5985 6.28598C14.6012 6.28858 14.6055 6.2926 14.611 6.29724C14.6222 6.30667 14.6395 6.31974 14.6628 6.33142L14.8864 5.88421ZM14.9055 5.89355C14.9134 5.89882 14.9193 5.90375 14.9167 5.90166C14.9154 5.90062 14.9056 5.89257 14.893 5.88417L14.6156 6.3002C14.6077 6.29493 14.6018 6.29 14.6044 6.29209C14.6057 6.29313 14.6155 6.30118 14.6281 6.30958L14.9055 5.89355ZM14.9311 5.91541C14.9237 5.90806 14.9171 5.90234 14.9122 5.89834C14.9073 5.89427 14.903 5.89105 14.8999 5.88884C14.8969 5.8866 14.8943 5.88484 14.8927 5.88378C14.8913 5.88279 14.89 5.88191 14.8899 5.88184C14.8894 5.88152 14.8901 5.882 14.891 5.88261C14.892 5.88327 14.894 5.88465 14.8965 5.88649C14.899 5.88832 14.9028 5.89114 14.9073 5.89482C14.9117 5.89844 14.9179 5.90377 14.9248 5.91072L14.5713 6.26428C14.5786 6.27162 14.5852 6.27735 14.5901 6.28135C14.5951 6.28542 14.5994 6.28864 14.6024 6.29085C14.6055 6.29309 14.608 6.29485 14.6096 6.2959C14.6111 6.2969 14.6124 6.29778 14.6125 6.29785C14.613 6.29817 14.6122 6.29768 14.6113 6.29708C14.6104 6.29641 14.6084 6.29504 14.6058 6.2932C14.6033 6.29137 14.5995 6.28854 14.5951 6.28487C14.5907 6.28125 14.5845 6.27592 14.5775 6.26896L14.9311 5.91541ZM14.8867 5.87949L14.8727 5.87011L14.5953 6.28614L14.6094 6.29551L14.8867 5.87949ZM14.9108 5.90135C14.9034 5.894 14.8968 5.88827 14.8919 5.88427C14.8869 5.8802 14.8826 5.87698 14.8796 5.87476C14.8765 5.87253 14.874 5.87076 14.8724 5.86971C14.8709 5.86871 14.8696 5.86783 14.8695 5.86776C14.869 5.86744 14.8698 5.86793 14.8707 5.86854C14.8716 5.8692 14.8736 5.87057 14.8762 5.87242C14.8787 5.87424 14.8825 5.87707 14.887 5.88075C14.8914 5.88437 14.8975 5.8897 14.9045 5.89666L14.551 6.25021C14.5583 6.25757 14.5649 6.26329 14.5698 6.2673C14.5748 6.27137 14.5791 6.27459 14.5821 6.2768C14.5852 6.27904 14.5878 6.2808 14.5893 6.28185C14.5908 6.28285 14.5921 6.28373 14.5922 6.2838C14.5927 6.28412 14.5919 6.28363 14.591 6.28303C14.5901 6.28236 14.5881 6.28099 14.5855 6.27915C14.583 6.27732 14.5792 6.27449 14.5748 6.27081C14.5703 6.2672 14.5642 6.26186 14.5572 6.2549L14.9108 5.90135ZM14.8664 5.86543C14.8572 5.85931 14.8492 5.8547 14.8433 5.85152C14.8379 5.84861 14.8331 5.84623 14.8325 5.84593C14.8308 5.84506 14.8332 5.84627 14.8363 5.8479C14.8398 5.84982 14.8455 5.85306 14.8523 5.85761L14.575 6.27364C14.5842 6.27975 14.5922 6.28436 14.5981 6.28755C14.6035 6.29045 14.6083 6.29283 14.6089 6.29314C14.6106 6.294 14.6082 6.29279 14.6051 6.29116C14.6016 6.28925 14.5959 6.286 14.5891 6.28145L14.8664 5.86543ZM14.8255 5.84202C14.8393 5.84893 14.8497 5.85608 14.8484 5.85527C14.8473 5.85452 14.8346 5.84581 14.8177 5.83733L14.5941 6.28454C14.5802 6.27763 14.5699 6.27048 14.5711 6.27129C14.5722 6.27204 14.5849 6.28075 14.6019 6.28923L14.8255 5.84202ZM14.7849 5.82377C14.7953 5.82722 14.8033 5.83074 14.8084 5.8331C14.8135 5.8355 14.8172 5.83751 14.8187 5.83834C14.8197 5.83888 14.8213 5.83977 14.8188 5.83836C14.818 5.83792 14.8163 5.83697 14.8143 5.83587C14.8123 5.83478 14.8091 5.83305 14.8052 5.83108L14.5816 6.27829C14.5761 6.27557 14.572 6.27322 14.5731 6.27385C14.5732 6.27389 14.5733 6.27392 14.5736 6.27411C14.5739 6.27426 14.5743 6.27452 14.5748 6.2748C14.5758 6.27537 14.5774 6.27625 14.5793 6.27729C14.583 6.27929 14.589 6.28247 14.5964 6.28594C14.6037 6.28938 14.6141 6.29388 14.6268 6.29811L14.7849 5.82377ZM14.8052 5.83108L14.7958 5.82639L14.5722 6.27361L14.5816 6.2783L14.8052 5.83108ZM14.763 5.81283C14.7692 5.81489 14.7786 5.8184 14.7895 5.82386C14.7999 5.82902 14.8072 5.83379 14.8102 5.83574L14.5328 6.25176C14.5534 6.26552 14.5764 6.27768 14.6049 6.28717L14.763 5.81283ZM14.7833 5.82014C14.7786 5.81779 14.7621 5.80941 14.7396 5.80189L14.5815 6.27623C14.5756 6.27426 14.57 6.27206 14.5651 6.26986C14.5609 6.26801 14.5576 6.26634 14.5597 6.26736L14.7833 5.82014ZM14.7723 5.81546C14.7647 5.81163 14.7583 5.80887 14.755 5.80748C14.7516 5.80606 14.7485 5.80482 14.7479 5.8046C14.7465 5.80404 14.7477 5.8045 14.7492 5.80514C14.7507 5.80575 14.7553 5.80772 14.7614 5.81077L14.5378 6.25798C14.5455 6.26181 14.5519 6.26457 14.5552 6.26596C14.5586 6.26738 14.5617 6.26862 14.5622 6.26884C14.5636 6.2694 14.5625 6.26894 14.5609 6.2683C14.5595 6.26769 14.5548 6.26571 14.5487 6.26267L14.7723 5.81546ZM14.7287 5.7972C14.7341 5.79903 14.7385 5.80082 14.7362 5.79991C14.7346 5.79925 14.7263 5.79591 14.7162 5.79252L14.5581 6.26686C14.5526 6.26503 14.5483 6.26325 14.5505 6.26415C14.5522 6.26481 14.5604 6.26816 14.5706 6.27155L14.7287 5.7972ZM14.7489 5.80608C14.7331 5.79818 14.7192 5.79323 14.7093 5.79014C14.7045 5.78863 14.7004 5.78751 14.6978 5.7868C14.6953 5.78615 14.6932 5.78561 14.6931 5.78559C14.6924 5.78542 14.6938 5.78576 14.6954 5.78621C14.6973 5.78671 14.7006 5.7876 14.7046 5.78887C14.713 5.79147 14.7253 5.79584 14.7395 5.80296L14.5159 6.25017C14.5317 6.25807 14.5456 6.26302 14.5555 6.26611C14.5604 6.26762 14.5644 6.26874 14.5671 6.26945C14.5695 6.2701 14.5717 6.27064 14.5718 6.27066C14.5725 6.27083 14.5711 6.27049 14.5694 6.27005C14.5675 6.26954 14.5643 6.26865 14.5602 6.26738C14.5519 6.26478 14.5395 6.26041 14.5253 6.25329L14.7489 5.80608ZM14.7068 5.78939L14.6927 5.7847L14.5346 6.25905L14.5487 6.26373L14.7068 5.78939ZM14.7255 5.79827C14.7097 5.79037 14.6958 5.78541 14.6859 5.78233C14.681 5.78081 14.677 5.7797 14.6743 5.77899C14.6719 5.77834 14.6697 5.7778 14.6696 5.77778C14.6689 5.77761 14.6703 5.77795 14.672 5.77839C14.6739 5.77889 14.6771 5.77979 14.6812 5.78106C14.6895 5.78366 14.7019 5.78802 14.7161 5.79514L14.4925 6.24236C14.5083 6.25026 14.5222 6.25521 14.5321 6.2583C14.5369 6.25981 14.541 6.26093 14.5436 6.26163C14.5461 6.26229 14.5482 6.26282 14.5483 6.26285C14.549 6.26302 14.5476 6.26268 14.546 6.26223C14.5441 6.26173 14.5408 6.26084 14.5368 6.25957C14.5284 6.25697 14.5161 6.2526 14.5019 6.24548L14.7255 5.79827ZM14.6834 5.78158L14.6693 5.77689L14.5112 6.25123L14.5252 6.25592L14.6834 5.78158ZM14.5902 5.76406C14.6098 5.76406 14.6255 5.76646 14.6354 5.76837C14.6452 5.77027 14.6526 5.77238 14.6544 5.7729C14.6548 5.77302 14.6565 5.7735 14.6547 5.77297C14.654 5.77276 14.6508 5.77185 14.647 5.77084C14.6432 5.76986 14.6359 5.76804 14.6267 5.7664C14.6219 5.76555 14.6158 5.76461 14.6087 5.76387C14.6017 5.76314 14.5928 5.7625 14.5824 5.7625V6.2625C14.5723 6.2625 14.5636 6.26188 14.5567 6.26116C14.5499 6.26044 14.544 6.25954 14.5394 6.25873C14.5307 6.25718 14.5239 6.25548 14.5208 6.25465C14.5174 6.25378 14.5149 6.25304 14.5148 6.25302C14.5136 6.25267 14.516 6.25335 14.5171 6.25366C14.5203 6.25458 14.5291 6.25707 14.5404 6.25926C14.5518 6.26147 14.5691 6.26406 14.5902 6.26406V5.76406ZM14.6615 5.77533C14.6499 5.77146 14.6127 5.75938 14.5668 5.75938V6.25938C14.5546 6.25938 14.5449 6.2584 14.5384 6.25757C14.5317 6.2567 14.5262 6.25566 14.5222 6.2548C14.5145 6.25315 14.5083 6.25131 14.5034 6.24967L14.6615 5.77533ZM14.5668 5.75938C14.5864 5.75938 14.6019 5.7618 14.6105 5.76341C14.615 5.76425 14.6184 5.76503 14.6203 5.76548C14.622 5.76588 14.6234 5.76623 14.6227 5.76606C14.6227 5.76604 14.6205 5.76549 14.618 5.7649C14.6153 5.76428 14.6111 5.76332 14.6058 5.76234C14.5957 5.76044 14.5786 5.75781 14.5574 5.75781V6.25781C14.5378 6.25781 14.5223 6.25538 14.5137 6.25377C14.5093 6.25294 14.5058 6.25215 14.5039 6.25171C14.5022 6.25131 14.5008 6.25095 14.5015 6.25113C14.5016 6.25115 14.5037 6.2517 14.5062 6.25228C14.5089 6.25291 14.5132 6.25387 14.5184 6.25485C14.5285 6.25675 14.5456 6.25938 14.5668 6.25938V5.75938ZM14.6365 5.77064C14.6281 5.76784 14.6206 5.76582 14.6146 5.76435C14.6085 5.76287 14.6032 5.76181 14.5992 5.76106C14.5951 5.76032 14.5918 5.75978 14.5895 5.75943C14.5874 5.7591 14.5854 5.75883 14.585 5.75876C14.5841 5.75863 14.5846 5.75871 14.5854 5.75883C14.5863 5.75897 14.5884 5.75929 14.5911 5.75979C14.5938 5.7603 14.5978 5.76109 14.6026 5.76226C14.6074 5.76343 14.6136 5.76511 14.6209 5.76752L14.4627 6.24186C14.4711 6.24466 14.4786 6.24668 14.4847 6.24815C14.4907 6.24963 14.496 6.25069 14.5 6.25144C14.5041 6.25218 14.5075 6.25272 14.5097 6.25307C14.5119 6.2534 14.5138 6.25367 14.5143 6.25374C14.5152 6.25387 14.5146 6.25379 14.5138 6.25367C14.5129 6.25353 14.5109 6.25321 14.5081 6.25271C14.5054 6.2522 14.5014 6.25141 14.4966 6.25024C14.4918 6.24907 14.4856 6.24739 14.4784 6.24498L14.6365 5.77064ZM14.5418 5.75469C14.5614 5.75469 14.5769 5.75711 14.5855 5.75872C14.59 5.75956 14.5934 5.76034 14.5953 5.76079C14.597 5.76119 14.5984 5.76154 14.5977 5.76137C14.5976 5.76135 14.5955 5.7608 14.593 5.76021C14.5903 5.75959 14.586 5.75863 14.5808 5.75765C14.5707 5.75575 14.5536 5.75313 14.5324 5.75313V6.25313C14.5128 6.25313 14.4973 6.2507 14.4887 6.24909C14.4843 6.24826 14.4808 6.24747 14.4789 6.24703C14.4772 6.24663 14.4758 6.24627 14.4765 6.24644C14.4766 6.24647 14.4788 6.24702 14.4812 6.2476C14.4839 6.24823 14.4882 6.24918 14.4934 6.25016C14.5035 6.25207 14.5206 6.25469 14.5418 6.25469V5.75469ZM14.5324 5.75313C14.5449 5.75313 14.5546 5.75415 14.5599 5.75481C14.5626 5.75515 14.5647 5.75547 14.5657 5.75563C14.5666 5.75577 14.5673 5.75588 14.5665 5.75575C14.5661 5.75568 14.5643 5.75537 14.5622 5.75505C14.56 5.75471 14.5568 5.75423 14.5529 5.75374C14.5452 5.75278 14.5331 5.75156 14.5184 5.75156V6.25156C14.5059 6.25156 14.4962 6.25054 14.4909 6.24988C14.4881 6.24953 14.486 6.24922 14.485 6.24906C14.4842 6.24892 14.4835 6.24881 14.4843 6.24894C14.4847 6.249 14.4865 6.24931 14.4885 6.24963C14.4907 6.24997 14.494 6.25046 14.4979 6.25095C14.5055 6.25191 14.5176 6.25313 14.5324 6.25313V5.75313ZM14.5184 5.75156C14.5143 5.75156 14.5224 5.75142 14.5321 5.75223C14.5435 5.75318 14.5618 5.75563 14.5834 5.76283L14.4252 6.23717C14.4515 6.24593 14.4745 6.24917 14.4906 6.2505C14.505 6.25171 14.5177 6.25156 14.5184 6.25156V5.75156ZM14.5043 5.75H10.9309V6.25H14.5043V5.75ZM10.9309 5.75C10.5162 5.75 10.1809 6.08537 10.1809 6.5H10.6809C10.6809 6.36151 10.7924 6.25 10.9309 6.25V5.75ZM10.1809 6.5C10.1809 6.91463 10.5162 7.25 10.9309 7.25V6.75C10.7924 6.75 10.6809 6.63849 10.6809 6.5H10.1809ZM10.9309 7.25H13.2605V6.75H10.9309V7.25ZM13.0837 6.82332L8.69149 11.2202L9.04523 11.5736L13.4374 7.17668L13.0837 6.82332ZM9.04514 11.2201L6.45139 8.62635L6.09783 8.9799L8.69158 11.5737L9.04514 11.2201ZM6.45139 8.62635C6.31135 8.48631 6.12144 8.40625 5.92148 8.40625V8.90625C5.98716 8.90625 6.05037 8.93244 6.09783 8.9799L6.45139 8.62635ZM5.92148 8.40625C5.72153 8.40625 5.53162 8.48631 5.39158 8.62635L5.74514 8.9799C5.7926 8.93244 5.85581 8.90625 5.92148 8.90625V8.40625ZM5.39158 8.62635L0.969708 13.0482L1.32326 13.4018L5.74514 8.9799L5.39158 8.62635ZM0.969708 13.0482C0.676764 13.3412 0.676764 13.8166 0.969708 14.1096L1.32326 13.756C1.22558 13.6584 1.22558 13.4995 1.32326 13.4018L0.969708 13.0482ZM0.969708 14.1096C1.11458 14.2545 1.30677 14.3297 1.49961 14.3297V13.8297C1.4362 13.8297 1.37214 13.8049 1.32326 13.756L0.969708 14.1096ZM1.49961 14.3297C1.69064 14.3297 1.88426 14.2572 2.03092 14.1082L1.67455 13.7575C1.62746 13.8053 1.56483 13.8297 1.49961 13.8297V14.3297ZM2.02951 14.1096L6.09826 10.0408L5.74471 9.68729L1.67596 13.756L2.02951 14.1096ZM5.74471 10.0408L8.33846 12.6346L8.69201 12.281L6.09826 9.68729L5.74471 10.0408ZM8.33846 12.6346C8.4785 12.7746 8.66841 12.8547 8.86836 12.8547V12.3547C8.80269 12.3547 8.73947 12.3285 8.69201 12.281L8.33846 12.6346ZM8.86836 12.8547C9.06831 12.8547 9.25822 12.7746 9.39826 12.6346L9.04471 12.281C8.99725 12.3285 8.93403 12.3547 8.86836 12.3547V12.8547ZM9.39826 12.6346L14.1451 7.88771L13.7916 7.53416L9.04471 12.281L9.39826 12.6346ZM13.7184 7.71094V10.0406H14.2184V7.71094H13.7184ZM13.7184 10.0406C13.7184 10.4553 14.0537 10.7906 14.4684 10.7906V10.2906C14.3299 10.2906 14.2184 10.1791 14.2184 10.0406H13.7184ZM14.4684 10.7906C14.883 10.7906 15.2184 10.4553 15.2184 10.0406H14.7184C14.7184 10.1791 14.6068 10.2906 14.4684 10.2906V10.7906ZM15.2184 10.0406V6.50313H14.7184V10.0406H15.2184ZM15.2184 6.50313V6.50156H14.7184V6.50313H15.2184Z" fill="#F7B633" mask="url(#path-1-outside-1)"/>
</svg>
